# xmcd
#
# Track frame offsets:
#	150
#	13557
#	25347
#	39383
#	53584
#	67401
#	81407
#	93049
#	104627
#	116169
#	129800
#	142493
#	154720
#	167107
#	181199
#	193235
#	206283
#	219036
#	230192
#	243141
#	257139
#	267962
#	279102
#	291685
#
# Disc length: 4050
#
# Revision: 2
# Processed by: cddbd v1.5.1PL0 Copyright (c) Steve Scherf et al.
# Submitted via: CDex 1.51
# Normalized: r1:TDELIM( - )
#
DISCID=630fd018
DTITLE=SagaBlues - From Gospel To Soul - When The Church Hits The Charts
DYEAR=2004
DGENRE=Blues
TTITLE0=Sister Rosetta Tharpe - How Far From God
TTITLE1=Mahalia Jackson - Dig A Little Deeper
TTITLE2=Marie Knight - I Thank You Jesus
TTITLE3=Sister Wyonna Carr - The Ball Game
TTITLE4=Brother Joe May - Search Me Lord
TTITLE5=Prof Alex Bradford and The Bradfort Specials - Too Close To Heaven
TTITLE6=Rev Anderson Johnson - God Don't Like It
TTITLE7=The Trumpeteers - Milky White Way
TTITLE8=The Selah Singers - Down Here I've Done My Best
TTITLE9=The Five Blind Boys of Mississippi - Our Father
TTITLE10=The Dixies Hummingbirds - Trouble in My Way
TTITLE11=Sam Cooke and The Soul Stirrers - Jesus Gave Me Water
TTITLE12=Roy Brown - Love Don't Love Nobody
TTITLE13=Bobby Blue Bland and Ike Turner - Drifting
TTITLE14=Gatemounth Moore - Highway 61 Blues
TTITLE15=Little Richards - Ain't That Good News
TTITLE16=Ray Charles - Feelin' Sad
TTITLE17=Dinah Washington - Good Daddy Blues
TTITLE18=Faye Adams - Shake a Hand
TTITLE19=LaVern Baker - Soul On Fire
TTITLE20=The Dominoes - That's What You're Doing to Me
TTITLE21=The Du-Droppers - Somebody Work on My Baby's Mind
TTITLE22=The Spiders - I Didn't Want to Do It
TTITLE23=The "5" Royales - Baby Don't Do It
EXTD=YEAR: 2004
EXTT0=
EXTT1=
EXTT2=
EXTT3=
EXTT4=
EXTT5=
EXTT6=
EXTT7=
EXTT8=
EXTT9=
EXTT10=
EXTT11=
EXTT12=
EXTT13=
EXTT14=
EXTT15=
EXTT16=
EXTT17=
EXTT18=
EXTT19=
EXTT20=
EXTT21=
EXTT22=
EXTT23=
PLAYORDER=
